<?xml version="1.0" encoding="utf-8"?>
<svg version="1.1" xmlns="http://www.w3.org/2000/svg" viewBox="0 0 40 63.6" xml:space="preserve">
<path fill="param(fill) #010101" d="M34.2,5.8c-8-7.8-20.3-7.8-28.3,0s-7.8,20.3,0,28.1c0,0,14.1,13.7,14.1,29.7c0-15.9,14.1-29.7,14.1-29.7
	C41.9,26.3,41.9,13.6,34.2,5.8z"/>
<path fill="#FFFFFF" d="M30.6,8.2H9.5c-0.6,0-4.4,10.2-4.4,10.2V20c0,0.6,0.8,1.4,1.8,1.4c0.2,0,0.6,0,0.8-0.2v10.8h24.7V21.2
	c0.2,0.2,0.6,0.2,0.8,0.2c1,0,1.8-0.6,1.8-1.4v-1.6C35,18.2,31,8.2,30.6,8.2z M10.1,21.2c-1,0-1.6-0.6-1.6-1.4v0l0,0v-1.6l3.2-8.2
	h2.6l-2.6,8.2v1.6l0,0C11.7,20.6,10.9,21.2,10.1,21.2z M16.7,21.2c-1,0-1.6-0.6-1.6-1.4v0l0,0v-1.6l1.4-8.2H19l-0.8,8.2v1.4v0.2
	C18.2,20.6,17.4,21.2,16.7,21.2z M23.2,21.2c-1,0-1.6-0.6-1.6-1.4v0v-1.6L21,10h2.6l1.4,8.2v1.6l0,0C24.8,20.6,24.2,21.2,23.2,21.2z
	 M31.4,19.8c0,0.6-0.6,1.4-1.6,1.4s-1.6-0.6-1.6-1.4l0,0v-1.6L25.8,10h2.6l3.2,8.2L31.4,19.8L31.4,19.8L31.4,19.8L31.4,19.8z"/>
</svg>
